# Blender 4.1.1
# www.blender.org
mtllib hyouse.mtl
o Cube
v -2.529967 -0.075899 2.529967
v -2.529967 0.075899 2.529967
v -2.529967 -0.075899 -2.529967
v -2.529967 0.075899 -2.529967
v 2.529967 -0.075899 2.529967
v 2.529967 0.075899 2.529967
v 2.529967 -0.075899 -2.529967
v 2.529967 0.075899 -2.529967
vn -1.0000 -0.0000 -0.0000
vn -0.0000 -0.0000 -1.0000
vn 1.0000 -0.0000 -0.0000
vn -0.0000 -0.0000 1.0000
vn -0.0000 -1.0000 -0.0000
vn -0.0000 1.0000 -0.0000
vt -0.569965 -0.569965
vt -0.569965 1.569965
vt 1.569965 1.569965
vt 1.569965 -0.569965
s 0
usemtl Rotten_Wood
f 1/1/1 2/2/1 4/3/1 3/4/1
f 3/1/2 4/2/2 8/3/2 7/4/2
f 7/4/3 8/3/3 6/2/3 5/1/3
f 5/4/4 6/3/4 2/2/4 1/1/4
f 3/2/5 7/3/5 5/4/5 1/1/5
f 8/3/6 4/2/6 2/1/6 6/4/6
o Cube.001
v -2.680339 2.973893 2.529967
v -2.528541 2.973893 2.529967
v -2.680339 2.973893 -2.529967
v -2.528541 2.973893 -2.529967
v -2.680339 -0.077983 2.529967
v -2.528541 -0.077983 2.529967
v -2.680339 -0.077983 -2.529967
v -2.528541 -0.077983 -2.529967
vn -0.0000 1.0000 -0.0000
vn -0.0000 -0.0000 -1.0000
vn -0.0000 -1.0000 -0.0000
vn -0.0000 -0.0000 1.0000
vn -1.0000 -0.0000 -0.0000
vn 1.0000 -0.0000 -0.0000
vt -0.877268 -0.877268
vt -0.877268 1.877268
vt 1.877268 1.877268
vt 1.877268 -0.877268
s 0
usemtl Wood_White
f 9/5/7 10/6/7 12/7/7 11/8/7
f 11/5/8 12/6/8 16/7/8 15/8/8
f 15/8/9 16/7/9 14/6/9 13/5/9
f 13/8/10 14/7/10 10/6/10 9/5/10
f 11/6/11 15/7/11 13/8/11 9/5/11
f 16/7/12 12/6/12 10/5/12 14/8/12
o Cube.002
v -2.675719 2.973893 2.529313
v -2.675719 2.973893 2.681111
v 2.680893 2.973893 2.529313
v 2.680893 2.973893 2.681111
v -2.675719 -0.077983 2.529313
v -2.675719 -0.077983 2.681111
v 2.680893 -0.077983 2.529313
v 2.680893 -0.077983 2.681111
v -1.000000 1.917102 2.681111
v -1.000000 1.917102 2.529313
v -1.000000 2.167102 2.681111
v -1.000000 2.167102 2.529313
v -0.750000 2.167102 2.681111
v -0.750000 2.167102 2.529313
v -1.000000 1.667102 2.681111
v -1.000000 1.667102 2.529313
v -0.500000 2.167102 2.681111
v -0.500000 2.167102 2.529313
v -0.250000 2.167102 2.681111
v -0.250000 2.167102 2.529313
v 0.000000 2.167102 2.681111
v -0.000000 2.167102 2.529313
v 0.250000 2.167102 2.681111
v 0.250000 2.167102 2.529313
v -1.000000 1.417102 2.681111
v -1.000000 1.417102 2.529313
v -1.000000 1.167102 2.681111
v -1.000000 1.167102 2.529313
v 0.500000 2.167102 2.681111
v 0.500000 2.167102 2.529313
v 1.000000 2.167102 2.681111
v 1.000000 2.167102 2.529313
v -1.000000 0.917102 2.681111
v -1.000000 0.917102 2.529313
v 0.750000 2.167102 2.681111
v 0.750000 2.167102 2.529313
v -1.000000 0.667102 2.681111
v -1.000000 0.667102 2.529313
v 1.000000 1.917102 2.681111
v 1.000000 1.917102 2.529313
v 1.000000 1.667102 2.681111
v 1.000000 1.667102 2.529313
v -1.000000 0.417102 2.681111
v -1.000000 0.417102 2.529313
v 1.000000 1.417102 2.681111
v 1.000000 1.417102 2.529313
v -1.000000 0.167102 2.681111
v -1.000000 0.167102 2.529313
v -0.750000 0.167102 2.681111
v -0.750000 0.167102 2.529313
v 1.000000 1.167102 2.681111
v 1.000000 1.167102 2.529313
v -0.500000 0.167102 2.681111
v -0.500000 0.167102 2.529313
v -0.250000 0.167102 2.681111
v -0.250000 0.167102 2.529313
v 1.000000 0.917102 2.681111
v 1.000000 0.917102 2.529313
v 0.000000 0.167102 2.681111
v 0.000000 0.167102 2.529313
v 1.000000 0.417102 2.681111
v 1.000000 0.417102 2.529313
v 1.000000 0.667102 2.681111
v 1.000000 0.667102 2.529313
v 0.250000 0.167102 2.681111
v 0.250000 0.167102 2.529313
v 0.500000 0.167102 2.681111
v 0.500000 0.167102 2.529313
v 0.750000 0.167102 2.681111
v 0.750000 0.167102 2.529313
v 1.000000 0.167102 2.681111
v 1.000000 0.167102 2.529313
vn -0.0000 1.0000 -0.0000
vn 1.0000 -0.0000 -0.0000
vn -0.0000 -1.0000 -0.0000
vn -1.0000 -0.0000 -0.0000
vn -0.0000 -0.0000 -1.0000
vn -0.0000 -0.0000 1.0000
vt -2.353001 -2.355443
vt -2.353001 3.355443
vt 3.357884 3.355443
vt 3.357884 -2.355443
vt -2.820556 -2.355443
vt -2.820556 3.355443
vt 2.890329 3.355443
vt 2.890329 -2.355443
vt -2.820556 3.357884
vt 2.890329 3.357884
vt 2.890329 -2.353001
vt 2.431709 -0.566455
vt 2.431709 -0.299920
vt 2.431709 -0.033386
vt 2.431709 0.233148
vt 2.431709 0.499683
vt 2.431709 0.766217
vt 2.431709 1.032752
vt 2.431709 1.299286
vt 2.431709 1.565820
vt 1.963891 1.565820
vt 1.496074 1.565820
vt 1.028256 1.565820
vt 0.560439 1.565820
vt 0.092621 1.565820
vt -0.375197 1.565820
vt -0.843014 1.565820
vt -1.310832 1.565820
vt 2.431709 0.233148
vt 2.431709 -0.299920
vt 2.431709 -0.566455
vt 1.963891 -0.566455
vt 1.496074 -0.566455
vt 1.028256 -0.566455
vt 0.560439 -0.566455
vt 0.092621 -0.566455
vt -0.375197 -0.566455
vt -0.843014 -0.566455
vt -1.310832 -0.566455
vt -2.820556 -2.353001
vt -0.375197 -2.355443
vt -0.375197 3.355443
vt 0.092621 3.355443
vt 0.092621 -2.355443
vt -0.033386 -2.355443
vt -0.033386 3.355443
vt -0.299920 3.355443
vt -0.299920 -2.355442
vt 0.560439 -2.355443
vt 0.560439 3.355443
vt 1.028256 -2.355443
vt 1.028256 3.355443
vt 1.496074 3.355443
vt 1.496074 -2.355443
vt 1.028256 -2.355443
vt 0.560439 3.355443
vt 0.499683 -2.355443
vt 0.499683 3.355443
vt 0.766217 3.355444
vt 0.766217 -2.355443
vt -0.843014 3.355443
vt -0.843014 -2.355443
vt 0.499683 -2.355443
vt 0.499683 3.355443
vt 0.233148 3.355443
vt 0.233148 -2.355442
vt -0.843014 3.355443
vt -1.310832 -0.299920
vt -1.310832 -0.033386
vt -1.310832 0.233148
vt -1.310832 0.499683
vt -1.310832 0.766217
vt -1.310832 1.032752
vt -1.310832 1.299286
vt 1.028256 1.565820
vt 0.233148 -2.355443
vt 0.233148 3.355443
vt 2.431709 -2.355443
vt 2.431709 3.355443
vt 1.963891 3.355443
vt 1.963891 -2.355442
vt 1.963891 -2.355443
vt 1.963891 3.355443
vt 0.766217 -2.355442
vt 0.766217 3.355442
vt -1.310832 3.355443
vt -1.310832 -2.355443
vt -0.299920 -2.355443
vt -0.299920 3.355443
vt -0.033386 3.355443
vt -0.033386 -2.355443
vt -1.310832 0.233148
vt 1.963891 -0.566455
vt -1.310832 3.355443
vt 1.299286 -2.355443
vt 1.299286 3.355443
vt 1.565820 3.355443
vt 1.565820 -2.355443
vt 1.032752 3.355443
vt 1.032752 -2.355442
vt 1.565820 -2.355443
vt 1.565820 3.355443
vt 1.299286 3.355443
vt 1.299286 -2.355443
vt -0.566455 -2.355443
vt -0.566455 3.355443
vt -0.566455 3.355443
vt -0.566455 -2.355443
s 0
usemtl Wood_White
f 17/9/13 18/10/13 20/11/13 19/12/13
f 19/13/14 20/14/14 24/15/14 23/16/14
f 23/12/15 24/11/15 22/10/15 21/9/15
f 21/16/16 22/15/16 18/14/16 17/13/16
f 19/17/17 23/18/17 21/19/17 64/20/17 66/21/17 70/22/17 72/23/17 76/24/17 82/25/17 84/26/17 86/27/17 88/28/17 78/29/17 80/30/17 74/31/17 68/32/17 62/33/17 58/34/17 56/35/17 48/36/17
f 24/18/18 87/28/18 85/27/18 83/26/18 81/25/18 75/24/18 71/37/18 69/22/18 65/38/18 63/39/18 59/40/18 53/41/18 49/42/18 43/43/18 41/44/18 31/45/18 25/46/18 27/47/18 18/48/18 22/19/18
f 32/49/14 31/50/14 41/51/14 42/52/14
f 62/52/16 61/51/16 57/50/16 58/49/16
f 34/53/15 33/54/15 29/55/15 30/56/15
f 68/57/16 67/58/16 61/51/16 62/52/16
f 50/59/14 49/60/14 53/61/14 54/62/14
f 74/63/16 73/60/16 67/58/16 68/57/16
f 44/57/14 43/64/14 49/60/14 50/59/14
f 76/65/13 75/66/13 81/67/13 82/68/13
f 58/49/16 57/50/16 55/69/16 56/70/16
f 38/71/15 37/72/15 35/73/15 36/74/15
f 26/70/14 25/75/14 31/50/14 32/49/14
f 18/48/18 27/47/18 29/76/18 33/77/18 35/78/18 37/79/18 39/80/18 45/81/18 51/82/18 47/36/18 55/35/18 57/34/18 61/33/18 67/32/18 73/83/18 79/30/18 77/29/18 87/28/18 24/18/18 20/17/18
f 72/84/13 71/85/13 75/66/13 76/65/13
f 88/86/16 87/87/16 77/88/16 78/89/16
f 60/90/14 59/91/14 63/87/14 64/86/14
f 40/92/15 39/93/15 37/72/15 38/71/15
f 36/74/15 35/73/15 33/54/15 34/53/15
f 56/70/16 55/69/16 47/94/16 48/95/16
f 66/96/13 65/97/13 69/98/13 70/99/13
f 52/82/17 46/81/17 40/80/17 38/79/17 36/100/17 34/77/17 30/76/17 28/47/17 26/46/17 32/45/17 42/44/17 44/43/17 50/42/17 54/41/17 60/101/17 64/20/17 21/19/17 17/48/17 19/17/17 48/36/17
f 78/89/16 77/88/16 79/61/16 80/62/16
f 28/95/14 27/102/14 25/75/14 26/70/14
f 86/103/13 85/104/13 87/105/13 88/106/13
f 82/68/13 81/67/13 83/107/13 84/108/13
f 84/108/13 83/107/13 85/104/13 86/103/13
f 48/109/15 47/110/15 51/111/15 52/112/15
f 52/112/15 51/111/15 45/107/15 46/108/15
f 70/99/13 69/98/13 71/85/13 72/84/13
f 64/113/13 63/114/13 65/97/13 66/96/13
f 30/56/15 29/55/15 27/115/15 28/116/15
f 80/62/16 79/61/16 73/60/16 74/63/16
f 42/52/14 41/51/14 43/64/14 44/57/14
f 46/108/15 45/107/15 39/93/15 40/92/15
f 54/62/14 53/61/14 59/91/14 60/90/14
o Cube.003
v 2.529991 2.973893 2.529967
v 2.681789 2.973893 2.529967
v 2.529991 2.973893 -2.529967
v 2.681789 2.973893 -2.529967
v 2.529991 -0.077983 2.529967
v 2.681789 -0.077983 2.529967
v 2.529991 -0.077983 -2.529967
v 2.681789 -0.077983 -2.529967
vn -0.0000 1.0000 -0.0000
vn -0.0000 -0.0000 -1.0000
vn -0.0000 -1.0000 -0.0000
vn -0.0000 -0.0000 1.0000
vn -1.0000 -0.0000 -0.0000
vn 1.0000 -0.0000 -0.0000
vt -0.877268 -0.877268
vt -0.877268 1.877268
vt 1.877268 1.877268
vt 1.877268 -0.877268
s 0
usemtl Wood_White
f 89/117/19 90/118/19 92/119/19 91/120/19
f 91/117/20 92/118/20 96/119/20 95/120/20
f 95/120/21 96/119/21 94/118/21 93/117/21
f 93/120/22 94/119/22 90/118/22 89/117/22
f 91/118/23 95/119/23 93/120/23 89/117/23
f 96/119/24 92/118/24 90/117/24 94/120/24
o Cube.004
v -2.675719 2.973893 -2.681931
v -2.675719 2.973893 -2.530133
v 2.680893 2.973893 -2.681931
v 2.680893 2.973893 -2.530133
v -2.675719 -0.077983 -2.681931
v -2.675719 -0.077983 -2.530133
v 2.680893 -0.077983 -2.681931
v 2.680893 -0.077983 -2.530133
vn -0.0000 1.0000 -0.0000
vn 1.0000 -0.0000 -0.0000
vn -0.0000 -1.0000 -0.0000
vn -1.0000 -0.0000 -0.0000
vn -0.0000 -0.0000 -1.0000
vn -0.0000 -0.0000 1.0000
vt -0.926714 -0.926714
vt -0.926714 1.926714
vt 1.926714 1.926714
vt 1.926714 -0.926714
s 0
usemtl Wood_White
f 97/121/25 98/122/25 100/123/25 99/124/25
f 99/121/26 100/122/26 104/123/26 103/124/26
f 103/124/27 104/123/27 102/122/27 101/121/27
f 101/124/28 102/123/28 98/122/28 97/121/28
f 99/122/29 103/123/29 101/124/29 97/121/29
f 104/123/30 100/122/30 98/121/30 102/124/30
o Cone.001
v 2.667305 2.983809 2.675374
v -2.682902 2.983809 2.674810
v 0.000000 4.983809 0.000000
vn -0.0001 0.8009 0.5988
vt 0.500000 -1.022903
vt 0.500000 4.687983
vt -2.355443 -1.022903
s 0
usemtl Roof_Tiles
f 105/125/31 107/126/31 106/127/31
o Cone.002
v 2.682902 2.983809 -2.674810
v 2.667305 2.983809 2.675374
v 0.000000 4.983809 0.000000
vn 0.5988 0.8009 0.0017
vt 3.355443 -1.022903
vt 0.500000 4.687983
vt 0.500000 -1.022903
s 0
usemtl Roof_Tiles
f 108/128/32 110/129/32 109/130/32
o Cone.003
v -2.667305 2.983809 -2.675374
v 2.682902 2.983809 -2.674810
v 0.000000 4.983809 0.000000
vn 0.0001 0.8009 -0.5988
vt 0.500000 -1.022903
vt 0.500000 4.687983
vt 3.355443 -1.022903
s 0
usemtl Roof_Tiles
f 111/131/33 113/132/33 112/133/33
o Cone.004
v -2.667305 2.983809 -2.675374
v -2.682902 2.983809 2.674810
v 0.000000 4.983809 0.000000
vn -0.5988 0.8009 -0.0017
vt -2.355443 -1.022903
vt 0.500000 4.687983
vt 0.500000 -1.022903
s 0
usemtl Roof_Tiles
f 115/134/34 116/135/34 114/136/34
